<svg version="1.1" id="Capa_1" xmlns="http://www.w3.org/2000/svg" xmlns:xlink="http://www.w3.org/1999/xlink" viewBox="0 0 24.1 35" style="enable-background:new 0 0 24.1 35;" xml:space="preserve" width="36" height="36">
<style type="text/css">
	.st0{fill:#FF2F26;}
</style>
<path id="Facebook_Places" class="st0" d="M23.5,8.7c-0.1-0.5-0.4-1-0.6-1.4C20.7,1.9,15.8,0,11.9,0C6.6,0,0.8,3.5,0,10.9v1.5c0,0.1,0,0.6,0,0.9c0.4,3.5,3.2,7.2,5.2,10.7c2.2,3.7,4.5,7.4,6.8,11.1c1.4-2.4,2.8-4.8,4.2-7.2c0.4-0.7,0.8-1.4,1.2-2c0.3-0.4,0.7-0.9,0.9-1.3c2.2-4,5.8-8.1,5.8-12.1v-1.7C24.1,10.3,23.6,8.8,23.5,8.7z M12,16.2c-1.6,0-3.3-0.8-4.1-2.9c-0.1-0.3-0.1-1-0.1-1.1v-1c0-2.7,2.3-4,4.3-4c2.5,0,4.4,2,4.4,4.5C16.5,14.2,14.5,16.2,12,16.2z"/>
</svg>
